# xmcd CD database file
#
# Track frame offsets:
#	187
#	29395
#	54870
#	74695
#	87065
#
# Disc length: 2564 seconds
#
# Revision: 3
# Processed by: cddbd v1.5.1PL0 Copyright (c) Steve Scherf et al.
# Submitted via: CDex 1.51
#
DISCID=390a0205
DTITLE=キング・クリムゾン - リザード
DYEAR=1970
DGENRE=Progressive Rock
TTITLE0=サーカス〜カメレオンの参上〜
TTITLE1=インドア・ゲームズ
TTITLE2=ハッピー・ファミリー
TTITLE3=レディ・オブ・ザ・ダンシング・ウォーター
TTITLE4=リザード
EXTD=YEAR: 1970
EXTT0=
EXTT1=
EXTT2=
EXTT3=
EXTT4=(a) Prince Rupert Awakes\n(b) Bolero - The Peacock's Tale\n(c) The Battle Of Glass Tears\n  (i)  Dawn Song\n  (ii)  Last Skirmish\n  (iii) Prince Rupert's Lament\n(d) Big Top
PLAYORDER=
